simulation
nRows=49
nColumns=15
endheader
time  TH_x TH_y TH_z SC_y  SC_z  SC_x  AC_y  AC_z  AC_x  GH_y  GH_z  GH_yy  EL_x  PS_y
0.500000  0.000000  0.000000  0.000000  -27.388599  9.399449  36.143455  78.773239  13.660286  8.080767  35.967859  49.282432  -32.089532  30.157967  104.810290
0.500635  0.000000  0.000000  0.000000  -27.388599  9.399449  40.429169  78.942683  9.455274  7.235637  35.967859  49.282432  -32.089532  30.157967  104.810290
0.501271  0.000000  0.000000  0.000000  -27.388599  9.399449  44.714883  79.048282  5.248283  6.410956  35.967859  49.282432  -32.089532  30.157967  104.810290
0.501906  0.000000  0.000000  0.000000  -27.388599  9.399449  49.000598  79.092941  1.040242  5.597346  35.967859  49.282432  -32.089532  30.157967  104.810290
0.502541  0.000000  0.000000  0.000000  -27.388599  9.399449  53.286312  79.077864  -3.168015  4.785907  35.967859  49.282432  -32.089532  30.157967  104.810290
0.503177  0.000000  0.000000  0.000000  -27.388599  9.399449  57.572026  79.002647  -7.375634  3.967833  35.967859  49.282432  -32.089532  30.157967  104.810290
0.503812  0.000000  0.000000  0.000000  -27.388599  9.399449  61.857741  78.865242  -11.581738  3.134032  35.967859  49.282432  -32.089532  30.157967  104.810290
0.504447  0.000000  0.000000  0.000000  -27.388599  9.399449  66.143455  78.661822  -15.785381  2.274719  35.967859  49.282432  -32.089532  30.157967  104.810290
0.505083  0.000000  0.000000  0.000000  -24.497453  10.625039  6.019112  73.678497  30.142527  12.421627  38.803489  42.791244  -43.937572  36.745046  92.776351
0.505718  0.000000  0.000000  0.000000  -24.497453  10.625039  10.304826  74.309324  26.022752  11.082477  38.803489  42.791244  -43.937572  36.745046  92.776351
0.506353  0.000000  0.000000  0.000000  -24.497453  10.625039  14.590540  74.816449  21.891481  9.834423  38.803489  42.791244  -43.937572  36.745046  92.776351
0.506989  0.000000  0.000000  0.000000  -24.497453  10.625039  18.876254  75.216019  17.751322  8.656852  38.803489  42.791244  -43.937572  36.745046  92.776351
0.507624  0.000000  0.000000  0.000000  -24.497453  10.625039  23.161969  75.520023  13.604466  7.532645  38.803489  42.791244  -43.937572  36.745046  92.776351
0.508259  0.000000  0.000000  0.000000  -24.497453  10.625039  27.447683  75.737101  9.452738  6.447230  38.803489  42.791244  -43.937572  36.745046  92.776351
0.508895  0.000000  0.000000  0.000000  -24.497453  10.625039  31.733397  75.873205  5.297755  5.387756  38.803489  42.791244  -43.937572  36.745046  92.776351
0.509530  0.000000  0.000000  0.000000  -24.497453  10.625039  36.019112  75.931937  1.141001  4.342456  38.803489  42.791244  -43.937572  36.745046  92.776351
0.510165  0.000000  0.000000  0.000000  -24.497453  10.625039  40.304826  75.914874  -3.016138  3.300179  38.803489  42.791244  -43.937572  36.745046  92.776351
0.510801  0.000000  0.000000  0.000000  -24.497453  10.625039  44.590540  75.821547  -7.172264  2.249886  38.803489  42.791244  -43.937572  36.745046  92.776351
0.511436  0.000000  0.000000  0.000000  -24.497453  10.625039  48.876254  75.649506  -11.325967  1.180221  38.803489  42.791244  -43.937572  36.745046  92.776351
0.512071  0.000000  0.000000  0.000000  -24.497453  10.625039  53.161969  75.394108  -15.475711  0.078994  38.803489  42.791244  -43.937572  36.745046  92.776351
0.512706  0.000000  0.000000  0.000000  -24.497453  10.625039  57.447683  75.048249  -19.619787  -1.067350  38.803489  42.791244  -43.937572  36.745046  92.776351
0.513342  0.000000  0.000000  0.000000  -24.497453  10.625039  61.733397  74.601867  -23.756224  -2.274417  38.803489  42.791244  -43.937572  36.745046  92.776351
0.513977  0.000000  0.000000  0.000000  -24.497453  10.625039  66.019112  74.041241  -27.882673  -3.560747  38.803489  42.791244  -43.937572  36.745046  92.776351
0.514612  0.000000  0.000000  0.000000  -21.602990  17.100581  6.019112  61.960849  26.669553  11.871654  49.527927  42.099340  -37.316916  19.745636  103.322090
0.515248  0.000000  0.000000  0.000000  -21.602990  17.100581  10.304826  62.876890  22.870379  9.686677  49.527927  42.099340  -37.316916  19.745636  103.322090
0.515883  0.000000  0.000000  0.000000  -21.602990  17.100581  14.590540  63.616135  19.043003  7.621161  49.527927  42.099340  -37.316916  19.745636  103.322090
0.516518  0.000000  0.000000  0.000000  -21.602990  17.100581  18.876254  64.196962  15.193688  5.649146  49.527927  42.099340  -37.316916  19.745636  103.322090
0.517154  0.000000  0.000000  0.000000  -21.602990  17.100581  23.161969  64.633351  11.327851  3.748007  49.527927  42.099340  -37.316916  19.745636  103.322090
0.517789  0.000000  0.000000  0.000000  -21.602990  17.100581  27.447683  64.935393  7.450177  1.897745  49.527927  42.099340  -37.316916  19.745636  103.322090
0.518424  0.000000  0.000000  0.000000  -21.602990  17.100581  31.733397  65.109968  3.564956  0.080017  49.527927  42.099340  -37.316916  19.745636  103.322090
0.519060  0.000000  0.000000  0.000000  -21.602990  17.100581  36.019112  65.160974  -0.323815  -1.722390  49.527927  42.099340  -37.316916  19.745636  103.322090
0.519695  0.000000  0.000000  0.000000  -21.602990  17.100581  40.304826  65.089544  -4.212260  -3.526183  49.527927  42.099340  -37.316916  19.745636  103.322090
0.520330  0.000000  0.000000  0.000000  -21.602990  17.100581  44.590540  64.894089  -8.096505  -5.348120  49.527927  42.099340  -37.316916  19.745636  103.322090
0.520966  0.000000  0.000000  0.000000  -21.602990  17.100581  48.876254  64.570239  -11.972518  -7.205538  49.527927  42.099340  -37.316916  19.745636  103.322090
0.521601  0.000000  0.000000  0.000000  -21.602990  17.100581  53.161969  64.110608  -15.835956  -9.117013  49.527927  42.099340  -37.316916  19.745636  103.322090
0.522236  0.000000  0.000000  0.000000  -21.602990  17.100581  57.447683  63.504469  -19.682000  -11.102963  49.527927  42.099340  -37.316916  19.745636  103.322090
0.522872  0.000000  0.000000  0.000000  -21.602990  17.100581  61.733397  62.737199  -23.505144  -13.186457  49.527927  42.099340  -37.316916  19.745636  103.322090
0.523507  0.000000  0.000000  0.000000  -21.602990  17.100581  66.019112  61.789556  -27.298927  -15.394165  49.527927  42.099340  -37.316916  19.745636  103.322090
0.524142  0.000000  0.000000  0.000000  -31.023459  15.730518  6.019112  64.164876  28.471313  11.072122  21.310267  56.571439  -66.167528  20.593876  98.883668
0.524778  0.000000  0.000000  0.000000  -31.023459  15.730518  10.304826  65.082456  24.598657  9.019546  21.310267  56.571439  -66.167528  20.593876  98.883668
0.525413  0.000000  0.000000  0.000000  -31.023459  15.730518  14.590540  65.825704  20.699852  7.090746  21.310267  56.571439  -66.167528  20.593876  98.883668
0.526048  0.000000  0.000000  0.000000  -31.023459  15.730518  18.876254  66.414581  16.780648  5.259029  21.310267  56.571439  -66.167528  20.593876  98.883668
0.526684  0.000000  0.000000  0.000000  -31.023459  15.730518  23.161969  66.864212  12.845938  3.501583  21.310267  56.571439  -66.167528  20.593876  98.883668
0.527319  0.000000  0.000000  0.000000  -31.023459  15.730518  27.447683  67.185682  8.899893  1.798491  21.310267  56.571439  -66.167528  20.593876  98.883668
0.527954  0.000000  0.000000  0.000000  -31.023459  15.730518  31.733397  67.386720  4.946268  0.131835  21.310267  56.571439  -66.167528  20.593876  98.883668
0.528590  0.000000  0.000000  0.000000  -31.023459  15.730518  36.019112  67.472012  0.988538  -1.514997  21.310267  56.571439  -66.167528  20.593876  98.883668
0.529225  0.000000  0.000000  0.000000  -31.023459  15.730518  40.304826  67.443591  -2.970001  -3.157903  21.310267  56.571439  -66.167528  20.593876  98.883668
0.529860  0.000000  0.000000  0.000000  -31.023459  15.730518  44.590540  67.300771  -6.926094  -4.812646  21.310267  56.571439  -66.167528  20.593876  98.883668
0.530496  0.000000  0.000000  0.000000  -31.023459  15.730518  48.876254  67.040224  -10.876366  -6.495397  21.310267  56.571439  -66.167528  20.593876  98.883668
